<mxfile host="app.diagrams.net" agent="Mozilla/5.0 (Windows NT 10.0; Win64; x64; rv:133.0) Gecko/20100101 Firefox/133.0" version="25.0.3">
  <diagram name="Page-1" id="e7e014a7-5840-1c2e-5031-d8a46d1fe8dd">
    <mxGraphModel dx="2868" dy="1564" grid="1" gridSize="10" guides="1" tooltips="1" connect="1" arrows="1" fold="1" page="1" pageScale="1" pageWidth="1169" pageHeight="826" background="none" math="0" shadow="0">
      <root>
        <mxCell id="0" />
        <mxCell id="1" parent="0" />
        <mxCell id="2" value="Usuario" style="swimlane;whiteSpace=wrap" parent="1" vertex="1">
          <mxGeometry x="164.5" y="128" width="280" height="1352" as="geometry" />
        </mxCell>
        <mxCell id="5" value="" style="ellipse;shape=startState;fillColor=#000000;strokeColor=#ff0000;" parent="2" vertex="1">
          <mxGeometry x="120.5" y="40" width="30" height="30" as="geometry" />
        </mxCell>
        <mxCell id="6" value="" style="edgeStyle=elbowEdgeStyle;elbow=horizontal;verticalAlign=bottom;endArrow=open;endSize=8;strokeColor=#FF0000;endFill=1;rounded=0" parent="2" source="5" target="7" edge="1">
          <mxGeometry x="100" y="40" as="geometry">
            <mxPoint x="115" y="110" as="targetPoint" />
          </mxGeometry>
        </mxCell>
        <mxCell id="c4VPGj0JsBmK04nnAnKR-19" style="edgeStyle=orthogonalEdgeStyle;rounded=0;orthogonalLoop=1;jettySize=auto;html=1;exitX=0.5;exitY=1;exitDx=0;exitDy=0;entryX=0.5;entryY=0;entryDx=0;entryDy=0;" edge="1" parent="2" source="7" target="TIaeId44DOJEp67dN0GT-56">
          <mxGeometry relative="1" as="geometry" />
        </mxCell>
        <mxCell id="7" value="Acessar o site" style="" parent="2" vertex="1">
          <mxGeometry x="80.5" y="110" width="110" height="50" as="geometry" />
        </mxCell>
        <mxCell id="TIaeId44DOJEp67dN0GT-68" style="edgeStyle=orthogonalEdgeStyle;rounded=0;orthogonalLoop=1;jettySize=auto;html=1;exitX=0.5;exitY=1;exitDx=0;exitDy=0;" parent="2" source="10" target="TIaeId44DOJEp67dN0GT-69" edge="1">
          <mxGeometry relative="1" as="geometry">
            <mxPoint x="133.5" y="412" as="targetPoint" />
          </mxGeometry>
        </mxCell>
        <mxCell id="10" value="Visualizar produto" style="" parent="2" vertex="1">
          <mxGeometry x="78" y="322" width="110" height="50" as="geometry" />
        </mxCell>
        <mxCell id="TIaeId44DOJEp67dN0GT-56" value="&lt;font&gt;Entrar no site?&lt;/font&gt;" style="rhombus;whiteSpace=wrap;html=1;fontColor=#000000;fillColor=#ffffc0;strokeColor=#ff0000;" parent="2" vertex="1">
          <mxGeometry x="75.5" y="192" width="115" height="68" as="geometry" />
        </mxCell>
        <mxCell id="TIaeId44DOJEp67dN0GT-58" value="Não" style="edgeStyle=orthogonalEdgeStyle;html=1;align=left;verticalAlign=top;endArrow=open;endSize=8;strokeColor=#ff0000;rounded=0;entryX=0;entryY=0.5;entryDx=0;entryDy=0;" parent="2" source="TIaeId44DOJEp67dN0GT-56" target="TIaeId44DOJEp67dN0GT-59" edge="1">
          <mxGeometry x="-0.808" relative="1" as="geometry">
            <mxPoint x="35.5" y="532" as="targetPoint" />
            <Array as="points">
              <mxPoint x="26" y="232" />
              <mxPoint x="26" y="545" />
            </Array>
            <mxPoint x="1" as="offset" />
          </mxGeometry>
        </mxCell>
        <mxCell id="TIaeId44DOJEp67dN0GT-59" value="" style="ellipse;html=1;shape=endState;fillColor=#000000;strokeColor=#ff0000;" parent="2" vertex="1">
          <mxGeometry x="14" y="712" width="30" height="30" as="geometry" />
        </mxCell>
        <mxCell id="TIaeId44DOJEp67dN0GT-69" value="Escolher produto" style="" parent="2" vertex="1">
          <mxGeometry x="100" y="422" width="110" height="50" as="geometry" />
        </mxCell>
        <mxCell id="TIaeId44DOJEp67dN0GT-78" style="edgeStyle=orthogonalEdgeStyle;rounded=0;orthogonalLoop=1;jettySize=auto;html=1;exitX=0.5;exitY=1;exitDx=0;exitDy=0;" parent="2" source="TIaeId44DOJEp67dN0GT-75" target="TIaeId44DOJEp67dN0GT-72" edge="1">
          <mxGeometry relative="1" as="geometry" />
        </mxCell>
        <mxCell id="TIaeId44DOJEp67dN0GT-75" value="Visualizar detalhes do produto" style="" parent="2" vertex="1">
          <mxGeometry x="60" y="542" width="178" height="52" as="geometry" />
        </mxCell>
        <mxCell id="TIaeId44DOJEp67dN0GT-80" style="edgeStyle=orthogonalEdgeStyle;rounded=0;orthogonalLoop=1;jettySize=auto;html=1;exitX=0.5;exitY=1;exitDx=0;exitDy=0;entryX=0.5;entryY=0;entryDx=0;entryDy=0;" parent="2" source="TIaeId44DOJEp67dN0GT-72" target="TIaeId44DOJEp67dN0GT-79" edge="1">
          <mxGeometry relative="1" as="geometry" />
        </mxCell>
        <mxCell id="TIaeId44DOJEp67dN0GT-72" value="Selecionar quantidade" style="" parent="2" vertex="1">
          <mxGeometry x="58" y="622" width="180" height="50" as="geometry" />
        </mxCell>
        <mxCell id="TIaeId44DOJEp67dN0GT-79" value="Comprar produto" style="" parent="2" vertex="1">
          <mxGeometry x="58" y="698" width="180" height="50" as="geometry" />
        </mxCell>
        <mxCell id="c4VPGj0JsBmK04nnAnKR-20" style="edgeStyle=orthogonalEdgeStyle;rounded=0;orthogonalLoop=1;jettySize=auto;html=1;exitX=0.5;exitY=1;exitDx=0;exitDy=0;" edge="1" parent="2" source="TIaeId44DOJEp67dN0GT-81" target="TIaeId44DOJEp67dN0GT-87">
          <mxGeometry relative="1" as="geometry" />
        </mxCell>
        <mxCell id="TIaeId44DOJEp67dN0GT-81" value="Visualizar carrinho" style="" parent="2" vertex="1">
          <mxGeometry x="60" y="762" width="180" height="50" as="geometry" />
        </mxCell>
        <mxCell id="TIaeId44DOJEp67dN0GT-87" value="Escolher frete" style="whiteSpace=wrap;html=1;" parent="2" vertex="1">
          <mxGeometry x="90" y="872" width="120" height="60" as="geometry" />
        </mxCell>
        <mxCell id="TIaeId44DOJEp67dN0GT-96" style="edgeStyle=orthogonalEdgeStyle;rounded=0;orthogonalLoop=1;jettySize=auto;html=1;exitX=0.5;exitY=1;exitDx=0;exitDy=0;entryX=0.5;entryY=0;entryDx=0;entryDy=0;" parent="2" source="TIaeId44DOJEp67dN0GT-94" target="TIaeId44DOJEp67dN0GT-93" edge="1">
          <mxGeometry relative="1" as="geometry" />
        </mxCell>
        <mxCell id="TIaeId44DOJEp67dN0GT-94" value="Finalizar compra" style="whiteSpace=wrap;html=1;" parent="2" vertex="1">
          <mxGeometry x="88" y="972" width="120" height="60" as="geometry" />
        </mxCell>
        <mxCell id="TIaeId44DOJEp67dN0GT-98" style="edgeStyle=orthogonalEdgeStyle;rounded=0;orthogonalLoop=1;jettySize=auto;html=1;exitX=0.5;exitY=1;exitDx=0;exitDy=0;entryX=0.5;entryY=0;entryDx=0;entryDy=0;" parent="2" source="TIaeId44DOJEp67dN0GT-93" target="TIaeId44DOJEp67dN0GT-97" edge="1">
          <mxGeometry relative="1" as="geometry" />
        </mxCell>
        <mxCell id="TIaeId44DOJEp67dN0GT-93" value="Preencher informações de pagamento" style="whiteSpace=wrap;html=1;" parent="2" vertex="1">
          <mxGeometry x="88" y="1051" width="120" height="60" as="geometry" />
        </mxCell>
        <mxCell id="TIaeId44DOJEp67dN0GT-97" value="Realizar pagamento" style="whiteSpace=wrap;html=1;" parent="2" vertex="1">
          <mxGeometry x="88" y="1132" width="120" height="60" as="geometry" />
        </mxCell>
        <mxCell id="TIaeId44DOJEp67dN0GT-122" style="edgeStyle=orthogonalEdgeStyle;rounded=0;orthogonalLoop=1;jettySize=auto;html=1;exitX=0;exitY=0.5;exitDx=0;exitDy=0;entryX=0.5;entryY=1;entryDx=0;entryDy=0;" parent="2" source="TIaeId44DOJEp67dN0GT-121" target="TIaeId44DOJEp67dN0GT-59" edge="1">
          <mxGeometry relative="1" as="geometry" />
        </mxCell>
        <mxCell id="TIaeId44DOJEp67dN0GT-121" value="Receber pedido" style="html=1;whiteSpace=wrap;" parent="2" vertex="1">
          <mxGeometry x="90" y="1282" width="110" height="50" as="geometry" />
        </mxCell>
        <mxCell id="3" value="Sistema" style="swimlane;whiteSpace=wrap" parent="1" vertex="1">
          <mxGeometry x="444.5" y="128" width="335.5" height="1352" as="geometry" />
        </mxCell>
        <mxCell id="18" value="Exibir produto" style="" parent="3" vertex="1">
          <mxGeometry x="20" y="285" width="110" height="50" as="geometry" />
        </mxCell>
        <mxCell id="TIaeId44DOJEp67dN0GT-74" value="Exibir informações do produto" style="" parent="3" vertex="1">
          <mxGeometry x="52.5" y="462" width="174.5" height="58" as="geometry" />
        </mxCell>
        <mxCell id="TIaeId44DOJEp67dN0GT-73" value="Processar pedido no carrinho e exibir carirnho" style="fontSize=10;" parent="3" vertex="1">
          <mxGeometry x="28.5" y="602" width="214" height="68" as="geometry" />
        </mxCell>
        <mxCell id="TIaeId44DOJEp67dN0GT-91" value="Calcular valor com frete" style="whiteSpace=wrap;html=1;" parent="3" vertex="1">
          <mxGeometry x="130" y="872" width="120" height="60" as="geometry" />
        </mxCell>
        <mxCell id="c4VPGj0JsBmK04nnAnKR-21" value="Pagamento confirmado?" style="rhombus;whiteSpace=wrap;html=1;fontColor=#000000;fillColor=#ffffc0;strokeColor=#ff0000;" vertex="1" parent="3">
          <mxGeometry x="140.5" y="1022" width="109.5" height="88" as="geometry" />
        </mxCell>
        <mxCell id="c4VPGj0JsBmK04nnAnKR-22" value="no" style="edgeStyle=orthogonalEdgeStyle;html=1;align=left;verticalAlign=bottom;endArrow=open;endSize=8;strokeColor=#ff0000;rounded=0;entryX=1;entryY=0.5;entryDx=0;entryDy=0;" edge="1" source="c4VPGj0JsBmK04nnAnKR-21" parent="3" target="c4VPGj0JsBmK04nnAnKR-24">
          <mxGeometry x="-1" relative="1" as="geometry">
            <mxPoint x="105.5" y="1192" as="targetPoint" />
            <Array as="points">
              <mxPoint x="195" y="1132" />
              <mxPoint x="286" y="1132" />
              <mxPoint x="286" y="1247" />
            </Array>
          </mxGeometry>
        </mxCell>
        <mxCell id="c4VPGj0JsBmK04nnAnKR-24" value="&lt;div&gt;Exibir mensagem &lt;br&gt;&lt;/div&gt;&lt;div&gt;pag. não realizado&lt;br&gt;&lt;/div&gt;" style="html=1;whiteSpace=wrap;" vertex="1" parent="3">
          <mxGeometry x="117" y="1222" width="110" height="50" as="geometry" />
        </mxCell>
        <mxCell id="TIaeId44DOJEp67dN0GT-41" value="Estoque" style="swimlane;whiteSpace=wrap" parent="1" vertex="1">
          <mxGeometry x="1060" y="128" width="280" height="1352" as="geometry" />
        </mxCell>
        <mxCell id="TIaeId44DOJEp67dN0GT-45" value="" style="ellipse;shape=endState;fillColor=#000000;strokeColor=#ff0000" parent="TIaeId44DOJEp67dN0GT-41" vertex="1">
          <mxGeometry x="120" y="432" width="30" height="30" as="geometry" />
        </mxCell>
        <mxCell id="TIaeId44DOJEp67dN0GT-65" value="Tem no estoque?" style="rhombus;whiteSpace=wrap;html=1;fontColor=#000000;fillColor=#ffffc0;strokeColor=#ff0000;" parent="TIaeId44DOJEp67dN0GT-41" vertex="1">
          <mxGeometry x="135.5" y="212" width="95.5" height="62" as="geometry" />
        </mxCell>
        <mxCell id="TIaeId44DOJEp67dN0GT-66" value="no" style="edgeStyle=orthogonalEdgeStyle;html=1;align=left;verticalAlign=bottom;endArrow=open;endSize=8;strokeColor=#ff0000;rounded=0;entryX=0.5;entryY=0;entryDx=0;entryDy=0;" parent="TIaeId44DOJEp67dN0GT-41" source="TIaeId44DOJEp67dN0GT-65" target="TIaeId44DOJEp67dN0GT-45" edge="1">
          <mxGeometry x="-1" relative="1" as="geometry">
            <mxPoint x="265.5" y="192" as="targetPoint" />
          </mxGeometry>
        </mxCell>
        <mxCell id="TIaeId44DOJEp67dN0GT-111" style="edgeStyle=orthogonalEdgeStyle;rounded=0;orthogonalLoop=1;jettySize=auto;html=1;exitX=0.5;exitY=1;exitDx=0;exitDy=0;entryX=0.5;entryY=0;entryDx=0;entryDy=0;" parent="TIaeId44DOJEp67dN0GT-41" source="TIaeId44DOJEp67dN0GT-106" target="TIaeId44DOJEp67dN0GT-110" edge="1">
          <mxGeometry relative="1" as="geometry" />
        </mxCell>
        <mxCell id="TIaeId44DOJEp67dN0GT-106" value="atualizar no estoque" style="" parent="TIaeId44DOJEp67dN0GT-41" vertex="1">
          <mxGeometry x="82.5" y="602" width="115" height="48" as="geometry" />
        </mxCell>
        <mxCell id="TIaeId44DOJEp67dN0GT-110" value="Gerar arquivo com dados" style="" parent="TIaeId44DOJEp67dN0GT-41" vertex="1">
          <mxGeometry x="70" y="732" width="140" height="60" as="geometry" />
        </mxCell>
        <mxCell id="TIaeId44DOJEp67dN0GT-119" value="Realizar entrega" style="html=1;whiteSpace=wrap;" parent="TIaeId44DOJEp67dN0GT-41" vertex="1">
          <mxGeometry x="85" y="842" width="110" height="50" as="geometry" />
        </mxCell>
        <mxCell id="TIaeId44DOJEp67dN0GT-57" value="Sim" style="edgeStyle=orthogonalEdgeStyle;html=1;align=left;verticalAlign=bottom;endArrow=open;endSize=8;strokeColor=#ff0000;rounded=0;" parent="1" source="TIaeId44DOJEp67dN0GT-56" target="18" edge="1">
          <mxGeometry x="-0.8333" relative="1" as="geometry">
            <mxPoint x="515" y="410" as="targetPoint" />
            <mxPoint as="offset" />
          </mxGeometry>
        </mxCell>
        <mxCell id="TIaeId44DOJEp67dN0GT-60" style="edgeStyle=orthogonalEdgeStyle;rounded=0;orthogonalLoop=1;jettySize=auto;html=1;exitX=0.5;exitY=1;exitDx=0;exitDy=0;entryX=1;entryY=0.5;entryDx=0;entryDy=0;" parent="1" source="18" target="10" edge="1">
          <mxGeometry relative="1" as="geometry">
            <Array as="points">
              <mxPoint x="520" y="480" />
              <mxPoint x="353" y="480" />
            </Array>
          </mxGeometry>
        </mxCell>
        <mxCell id="TIaeId44DOJEp67dN0GT-61" value="BOT" style="swimlane;whiteSpace=wrap" parent="1" vertex="1">
          <mxGeometry x="1340" y="128" width="280" height="1352" as="geometry" />
        </mxCell>
        <mxCell id="TIaeId44DOJEp67dN0GT-62" value="Monitorar estoque &#xa;gerar dados&#xa;estatísticas sobre&#xa;vendas e estoque &#xa;" style="" parent="TIaeId44DOJEp67dN0GT-61" vertex="1">
          <mxGeometry x="90" y="405" width="120" height="75" as="geometry" />
        </mxCell>
        <mxCell id="TIaeId44DOJEp67dN0GT-71" style="edgeStyle=orthogonalEdgeStyle;rounded=0;orthogonalLoop=1;jettySize=auto;html=1;exitX=1;exitY=0.5;exitDx=0;exitDy=0;entryX=0.5;entryY=0;entryDx=0;entryDy=0;fillColor=#ffe6cc;strokeColor=#D70954;" parent="1" source="TIaeId44DOJEp67dN0GT-69" target="TIaeId44DOJEp67dN0GT-65" edge="1">
          <mxGeometry relative="1" as="geometry">
            <Array as="points">
              <mxPoint x="740" y="575" />
              <mxPoint x="740" y="298" />
              <mxPoint x="1152" y="298" />
            </Array>
          </mxGeometry>
        </mxCell>
        <mxCell id="TIaeId44DOJEp67dN0GT-76" style="edgeStyle=orthogonalEdgeStyle;rounded=0;orthogonalLoop=1;jettySize=auto;html=1;exitX=0;exitY=0.5;exitDx=0;exitDy=0;entryX=0.5;entryY=0;entryDx=0;entryDy=0;" parent="1" source="TIaeId44DOJEp67dN0GT-74" target="TIaeId44DOJEp67dN0GT-75" edge="1">
          <mxGeometry relative="1" as="geometry" />
        </mxCell>
        <mxCell id="TIaeId44DOJEp67dN0GT-82" style="edgeStyle=orthogonalEdgeStyle;rounded=0;orthogonalLoop=1;jettySize=auto;html=1;exitX=1;exitY=0.5;exitDx=0;exitDy=0;entryX=0;entryY=0.5;entryDx=0;entryDy=0;" parent="1" source="TIaeId44DOJEp67dN0GT-79" target="TIaeId44DOJEp67dN0GT-73" edge="1">
          <mxGeometry relative="1" as="geometry">
            <Array as="points">
              <mxPoint x="430" y="851" />
              <mxPoint x="430" y="749" />
            </Array>
          </mxGeometry>
        </mxCell>
        <mxCell id="4" value="ADM" style="swimlane;whiteSpace=wrap" parent="1" vertex="1">
          <mxGeometry x="780" y="128" width="280" height="1352" as="geometry" />
        </mxCell>
        <mxCell id="TIaeId44DOJEp67dN0GT-113" style="edgeStyle=orthogonalEdgeStyle;rounded=0;orthogonalLoop=1;jettySize=auto;html=1;exitX=0.5;exitY=1;exitDx=0;exitDy=0;entryX=0.5;entryY=0;entryDx=0;entryDy=0;" parent="4" source="TIaeId44DOJEp67dN0GT-101" target="TIaeId44DOJEp67dN0GT-104" edge="1">
          <mxGeometry relative="1" as="geometry" />
        </mxCell>
        <mxCell id="TIaeId44DOJEp67dN0GT-101" value="Controlar&amp;nbsp; pedidos e informações" style="whiteSpace=wrap;html=1;" parent="4" vertex="1">
          <mxGeometry x="60" y="942" width="120" height="60" as="geometry" />
        </mxCell>
        <mxCell id="TIaeId44DOJEp67dN0GT-104" value="Exportar dados sobre vendas" style="whiteSpace=wrap;html=1;" parent="4" vertex="1">
          <mxGeometry x="60" y="1032" width="120" height="60" as="geometry" />
        </mxCell>
        <mxCell id="TIaeId44DOJEp67dN0GT-67" value="yes" style="edgeStyle=orthogonalEdgeStyle;html=1;align=left;verticalAlign=top;endArrow=open;endSize=8;strokeColor=#000000;rounded=0;entryX=0.5;entryY=0;entryDx=0;entryDy=0;exitX=0;exitY=0.5;exitDx=0;exitDy=0;" parent="1" source="TIaeId44DOJEp67dN0GT-65" target="TIaeId44DOJEp67dN0GT-74" edge="1">
          <mxGeometry x="-1" relative="1" as="geometry">
            <mxPoint x="585" y="598.5" as="targetPoint" />
            <mxPoint x="1110" y="350" as="sourcePoint" />
          </mxGeometry>
        </mxCell>
        <mxCell id="TIaeId44DOJEp67dN0GT-85" style="edgeStyle=orthogonalEdgeStyle;rounded=0;orthogonalLoop=1;jettySize=auto;html=1;exitX=0.5;exitY=1;exitDx=0;exitDy=0;entryX=1;entryY=0.5;entryDx=0;entryDy=0;" parent="1" source="TIaeId44DOJEp67dN0GT-73" target="TIaeId44DOJEp67dN0GT-81" edge="1">
          <mxGeometry relative="1" as="geometry" />
        </mxCell>
        <mxCell id="TIaeId44DOJEp67dN0GT-92" style="edgeStyle=orthogonalEdgeStyle;rounded=0;orthogonalLoop=1;jettySize=auto;html=1;exitX=1;exitY=0.5;exitDx=0;exitDy=0;entryX=0;entryY=0.5;entryDx=0;entryDy=0;" parent="1" source="TIaeId44DOJEp67dN0GT-87" target="TIaeId44DOJEp67dN0GT-91" edge="1">
          <mxGeometry relative="1" as="geometry" />
        </mxCell>
        <mxCell id="TIaeId44DOJEp67dN0GT-95" style="edgeStyle=orthogonalEdgeStyle;rounded=0;orthogonalLoop=1;jettySize=auto;html=1;exitX=0.5;exitY=1;exitDx=0;exitDy=0;entryX=0.993;entryY=0.573;entryDx=0;entryDy=0;entryPerimeter=0;" parent="1" source="TIaeId44DOJEp67dN0GT-91" target="TIaeId44DOJEp67dN0GT-94" edge="1">
          <mxGeometry relative="1" as="geometry" />
        </mxCell>
        <mxCell id="TIaeId44DOJEp67dN0GT-100" style="edgeStyle=orthogonalEdgeStyle;rounded=0;orthogonalLoop=1;jettySize=auto;html=1;exitX=1;exitY=0.5;exitDx=0;exitDy=0;entryX=0;entryY=0.5;entryDx=0;entryDy=0;" parent="1" source="TIaeId44DOJEp67dN0GT-97" target="c4VPGj0JsBmK04nnAnKR-21" edge="1">
          <mxGeometry relative="1" as="geometry">
            <mxPoint x="450" y="1280" as="targetPoint" />
          </mxGeometry>
        </mxCell>
        <mxCell id="TIaeId44DOJEp67dN0GT-114" style="edgeStyle=orthogonalEdgeStyle;rounded=0;orthogonalLoop=1;jettySize=auto;html=1;exitX=1;exitY=0.5;exitDx=0;exitDy=0;entryX=0.5;entryY=0;entryDx=0;entryDy=0;" parent="1" source="TIaeId44DOJEp67dN0GT-104" target="TIaeId44DOJEp67dN0GT-106" edge="1">
          <mxGeometry relative="1" as="geometry">
            <Array as="points">
              <mxPoint x="1030" y="1190" />
              <mxPoint x="1030" y="710" />
              <mxPoint x="1200" y="710" />
            </Array>
          </mxGeometry>
        </mxCell>
        <mxCell id="TIaeId44DOJEp67dN0GT-116" style="edgeStyle=orthogonalEdgeStyle;rounded=0;orthogonalLoop=1;jettySize=auto;html=1;exitX=1;exitY=0.5;exitDx=0;exitDy=0;entryX=0;entryY=0.5;entryDx=0;entryDy=0;" parent="1" source="TIaeId44DOJEp67dN0GT-110" target="TIaeId44DOJEp67dN0GT-62" edge="1">
          <mxGeometry relative="1" as="geometry" />
        </mxCell>
        <mxCell id="TIaeId44DOJEp67dN0GT-118" style="edgeStyle=orthogonalEdgeStyle;rounded=0;orthogonalLoop=1;jettySize=auto;html=1;exitX=0.5;exitY=1;exitDx=0;exitDy=0;entryX=1;entryY=0.5;entryDx=0;entryDy=0;" parent="1" source="TIaeId44DOJEp67dN0GT-62" target="TIaeId44DOJEp67dN0GT-119" edge="1">
          <mxGeometry relative="1" as="geometry">
            <mxPoint x="1490" y="648.0000000000002" as="targetPoint" />
          </mxGeometry>
        </mxCell>
        <mxCell id="TIaeId44DOJEp67dN0GT-120" style="edgeStyle=orthogonalEdgeStyle;rounded=0;orthogonalLoop=1;jettySize=auto;html=1;exitX=0.5;exitY=1;exitDx=0;exitDy=0;entryX=1;entryY=0.5;entryDx=0;entryDy=0;" parent="1" source="TIaeId44DOJEp67dN0GT-119" target="TIaeId44DOJEp67dN0GT-121" edge="1">
          <mxGeometry relative="1" as="geometry">
            <mxPoint x="1200.4736842105262" y="1050" as="targetPoint" />
          </mxGeometry>
        </mxCell>
        <mxCell id="c4VPGj0JsBmK04nnAnKR-23" value="yes" style="edgeStyle=orthogonalEdgeStyle;html=1;align=left;verticalAlign=top;endArrow=open;endSize=8;strokeColor=#ff0000;rounded=0;entryX=0.5;entryY=0;entryDx=0;entryDy=0;" edge="1" source="c4VPGj0JsBmK04nnAnKR-21" parent="1" target="TIaeId44DOJEp67dN0GT-101">
          <mxGeometry x="-1" relative="1" as="geometry">
            <mxPoint x="720" y="1290" as="targetPoint" />
          </mxGeometry>
        </mxCell>
        <mxCell id="c4VPGj0JsBmK04nnAnKR-25" style="edgeStyle=orthogonalEdgeStyle;rounded=0;orthogonalLoop=1;jettySize=auto;html=1;exitX=0;exitY=0.5;exitDx=0;exitDy=0;entryX=0;entryY=1;entryDx=0;entryDy=0;" edge="1" parent="1" source="c4VPGj0JsBmK04nnAnKR-24" target="TIaeId44DOJEp67dN0GT-59">
          <mxGeometry relative="1" as="geometry" />
        </mxCell>
      </root>
    </mxGraphModel>
  </diagram>
</mxfile>
